<svg width="24" height="20" viewBox="0 0 24 20" fill="none" xmlns="http://www.w3.org/2000/svg">
  <path fill-rule="evenodd" clip-rule="evenodd"
    d="M18.3839 19.7791C18.7059 20.0071 19.1209 20.0641 19.4909 19.9241C19.8609 19.7831 20.1329 19.4671 20.2149 19.0841C21.0839 15.0001 23.1919 4.66315 23.9829 0.948148C24.0429 0.668148 23.9429 0.377148 23.7229 0.190148C23.5029 0.00314829 23.1979 -0.0508518 22.9259 0.0501482C18.7329 1.60215 5.81991 6.44715 0.54191 8.40015C0.20691 8.52415 -0.0110904 8.84615 -9.04275e-05 9.19915C0.0119096 9.55315 0.24991 9.86015 0.59291 9.96315C2.95991 10.6711 6.06691 11.6561 6.06691 11.6561C6.06691 11.6561 7.51891 16.0411 8.27591 18.2711C8.37091 18.5511 8.58991 18.7711 8.87891 18.8471C9.16691 18.9221 9.47491 18.8431 9.68991 18.6401C10.9059 17.4921 12.7859 15.7171 12.7859 15.7171C12.7859 15.7171 16.3579 18.3361 18.3839 19.7791ZM7.37391 11.1021L9.05291 16.6401L9.42591 13.1331C9.42591 13.1331 15.9129 7.28215 19.6109 3.94715C19.7189 3.84915 19.7339 3.68515 19.6439 3.57015C19.5549 3.45515 19.3909 3.42815 19.2679 3.50615C14.9819 6.24315 7.37391 11.1021 7.37391 11.1021Z"
    fill="white" />
</svg>
  